<svg width="48" height="48" viewBox="0 0 48 48" fill="none" xmlns="http://www.w3.org/2000/svg">
<path d="M24 46.6657C36.5179 46.6657 46.6656 36.5179 46.6656 24.0001C46.6656 11.4822 36.5179 1.33447 24 1.33447C11.4821 1.33447 1.33441 11.4822 1.33441 24.0001C1.33441 36.5179 11.4821 46.6657 24 46.6657Z" fill="#3CB2FF"/>
<path d="M24 46.9057C11.3688 46.9057 1.09436 36.6289 1.09436 24.0001C1.09436 11.3713 11.3688 1.09448 24 1.09448C36.6312 1.09448 46.9056 11.3713 46.9056 24.0001C46.9056 36.6289 36.6288 46.9057 24 46.9057ZM24 1.57208C11.6328 1.57208 1.57436 11.6329 1.57436 23.9977C1.57436 36.3625 11.6352 46.4233 24 46.4233C36.3648 46.4233 46.4256 36.3625 46.4256 23.9977C46.4256 11.6329 36.3648 1.57448 24 1.57448V1.57208Z" fill="#231F20"/>
<path d="M39.2952 40.0174H8.70482C8.30642 40.0174 7.98242 39.6934 7.98242 39.295V8.70458C7.98242 8.30618 8.30642 7.98218 8.70482 7.98218H39.2952C39.6936 7.98218 40.0176 8.30618 40.0176 8.70458V39.295C40.0176 39.6934 39.6936 40.0174 39.2952 40.0174Z" fill="#FFF4DF"/>
<path d="M39.2952 40.2574H8.70483C8.17443 40.2574 7.74243 39.8254 7.74243 39.295V8.70459C7.74243 8.17419 8.17443 7.74219 8.70483 7.74219H39.2952C39.8256 7.74219 40.2576 8.17419 40.2576 8.70459V39.295C40.2576 39.8254 39.8256 40.2574 39.2952 40.2574ZM8.70483 8.22219C8.43843 8.22219 8.22243 8.43819 8.22243 8.70459V39.295C8.22243 39.5614 8.43843 39.7774 8.70483 39.7774H39.2952C39.5616 39.7774 39.7776 39.5614 39.7776 39.295V8.70459C39.7776 8.43819 39.5616 8.22219 39.2952 8.22219H8.70483Z" fill="#222222"/>
<path d="M24 32.3232C28.5967 32.3232 32.3232 28.5967 32.3232 24C32.3232 19.4032 28.5967 15.6768 24 15.6768C19.4032 15.6768 15.6768 19.4032 15.6768 24C15.6768 28.5967 19.4032 32.3232 24 32.3232Z" fill="#FFF4DF"/>
<path d="M24 32.5632C19.2768 32.5632 15.4368 28.7208 15.4368 24C15.4368 19.2792 19.2792 15.4368 24 15.4368C28.7208 15.4368 32.5632 19.2792 32.5632 24C32.5632 28.7208 28.7208 32.5632 24 32.5632ZM24 15.9168C19.5432 15.9168 15.9168 19.5432 15.9168 24C15.9168 28.4568 19.5432 32.0832 24 32.0832C28.4568 32.0832 32.0832 28.4568 32.0832 24C32.0832 19.5432 28.4568 15.9168 24 15.9168Z" fill="#231F20"/>
<path d="M18.1968 29.7337L17.7168 29.7169L17.8008 27.3913C17.8584 25.7497 19.1928 24.4609 20.8368 24.4609H27.1632C28.8072 24.4609 30.1416 25.7473 30.1992 27.3913L30.2832 29.7169L29.8032 29.7337L29.7192 27.4081C29.6688 26.0257 28.5456 24.9409 27.1632 24.9409H20.8368C19.452 24.9409 18.3288 26.0233 18.2808 27.4081L18.1968 29.7337Z" fill="#231F20"/>
<path d="M27.0984 31.9678C26.976 31.9678 26.8728 31.8766 26.8608 31.7518L26.484 28.1542C26.4696 28.0222 26.5656 27.9046 26.6976 27.8902C26.8296 27.8782 26.9472 27.9718 26.9616 28.1038L27.3384 31.7014C27.3528 31.8334 27.2568 31.951 27.1248 31.9654C27.1152 31.9654 27.108 31.9654 27.0984 31.9654V31.9678Z" fill="#231F20"/>
<path d="M20.6617 31.9681C20.6617 31.9681 20.6448 31.9681 20.6352 31.9681C20.5032 31.9537 20.4073 31.8361 20.4217 31.7041L20.7985 28.1065C20.8129 27.9745 20.9305 27.8809 21.0625 27.8929C21.1945 27.9073 21.2905 28.0249 21.2761 28.1569L20.8993 31.7545C20.8873 31.8769 20.7817 31.9705 20.6617 31.9705V31.9681Z" fill="#231F20"/>
<path d="M24 23.3569C23.0952 23.3569 22.3416 22.6489 22.284 21.7465C22.2816 21.7105 22.2792 21.6745 22.2792 21.6361C22.2792 21.5641 22.284 21.4945 22.2936 21.4249L22.3056 21.3289L23.7744 20.6113L25.7112 21.3841V21.5065C25.716 21.5377 25.716 21.5857 25.716 21.6361C25.716 21.6745 25.716 21.7105 25.7112 21.7465C25.656 22.6465 24.9024 23.3545 23.9952 23.3545L24 23.3569ZM22.644 21.5665C22.644 21.5905 22.644 21.6145 22.644 21.6361C22.644 21.6649 22.644 21.6937 22.6464 21.7225C22.692 22.4377 23.2872 22.9969 24.0024 22.9969C24.7176 22.9969 25.3128 22.4377 25.3584 21.7249C25.3584 21.6961 25.3608 21.6673 25.3608 21.6385V21.6337L23.7936 21.0073L22.6464 21.5665H22.644Z" fill="#231F20"/>
<path d="M25.7449 21.427C25.7449 21.5662 25.6585 21.6886 25.5361 21.7366C25.5361 21.703 25.5385 21.6718 25.5385 21.6382C25.5385 21.595 25.5385 21.5518 25.5337 21.5086L25.0945 21.3334L23.7841 20.8102L22.8745 21.2542L22.4737 21.4486C22.4665 21.511 22.4617 21.5734 22.4617 21.6358C22.4617 21.6694 22.4617 21.7006 22.4641 21.7342C22.3417 21.6862 22.2552 21.5662 22.2552 21.4246C22.2552 21.283 22.3417 21.1654 22.4641 21.1174C22.3417 21.067 22.2552 20.9494 22.2552 20.8078C22.2552 20.623 22.4041 20.4742 22.5889 20.4742C22.6201 20.4742 22.6513 20.479 22.6801 20.4862C22.6465 20.407 22.6393 20.3158 22.6729 20.2294C22.7401 20.059 22.9321 19.9726 23.1025 20.0398C23.1313 20.0518 23.1601 20.0662 23.1841 20.0854C23.1793 19.999 23.2081 19.9126 23.2705 19.8454C23.3953 19.7086 23.604 19.7014 23.7408 19.8238C23.7648 19.8454 23.7841 19.8694 23.7985 19.8958C23.8249 19.8142 23.8825 19.7446 23.9665 19.7014C24.1321 19.6198 24.3313 19.687 24.4129 19.8526C24.4273 19.8814 24.4369 19.9102 24.4417 19.9414C24.4969 19.8742 24.576 19.8286 24.6696 19.8214C24.852 19.8046 25.0152 19.9414 25.0296 20.1238C25.032 20.155 25.0297 20.1862 25.0249 20.215C25.0993 20.1718 25.1905 20.1598 25.2793 20.1862C25.4569 20.2366 25.5577 20.4214 25.5073 20.599C25.4977 20.6302 25.4857 20.659 25.4689 20.6854C25.5193 20.695 25.5696 20.7166 25.6152 20.7502C25.7616 20.863 25.7881 21.0718 25.6777 21.2158C25.7209 21.271 25.7473 21.343 25.7473 21.4198L25.7449 21.427Z" fill="#231F20"/>
<path d="M22.4736 21.8111H22.4712V21.0911L22.4736 21.8111Z" fill="#231F20"/>
<path d="M24.4849 22.5431H23.3977C23.2993 22.5431 23.2177 22.4615 23.2177 22.3631C23.2177 22.2647 23.2993 22.1831 23.3977 22.1831H24.4849C24.5833 22.1831 24.6649 22.2647 24.6649 22.3631C24.6649 22.4615 24.5833 22.5431 24.4849 22.5431Z" fill="#231F20"/>
<path d="M33.8832 19.1783H33.4032V14.5967H28.8217V14.1167H33.8832V19.1783Z" fill="#231F20"/>
<path d="M14.5944 19.1783H14.1144V14.1167H19.1785V14.5967H14.5944V19.1783Z" fill="#231F20"/>
<path d="M19.1785 33.8829H14.1144V28.8213H14.5944V33.4029H19.1785V33.8829Z" fill="#231F20"/>
<path d="M33.8832 33.8829H28.8217V33.4029H33.4032V28.8213H33.8832V33.8829Z" fill="#231F20"/>
<path d="M41.9665 32.9761H36.7009L32.9761 36.7009V41.9665L36.7009 45.6913H41.9665L45.6913 41.9665V36.7009L41.9665 32.9761Z" fill="#FF5050"/>
<path d="M42.0648 45.9311H36.6L32.736 42.0671V36.6023L36.6 32.7383H42.0648L45.9288 36.6023V42.0671L42.0648 45.9311ZM36.7992 45.4511H41.8656L45.4488 41.8679V36.8015L41.8656 33.2183H36.7992L33.216 36.8015V41.8679L36.7992 45.4511Z" fill="#231F20"/>
<path d="M37.3152 41.8655C37.2528 41.8655 37.1928 41.8415 37.1448 41.7959C37.0512 41.7023 37.0512 41.5511 37.1448 41.4575L41.7264 36.8759C41.82 36.7823 41.9712 36.7823 42.0648 36.8759C42.1584 36.9695 42.1584 37.1207 42.0648 37.2143L37.4832 41.7959C37.4352 41.8439 37.3752 41.8655 37.3128 41.8655H37.3152Z" fill="#231F20"/>
<path d="M41.8968 41.8655C41.8344 41.8655 41.7744 41.8415 41.7264 41.7959L37.1448 37.2143C37.0512 37.1207 37.0512 36.9695 37.1448 36.8759C37.2384 36.7823 37.3896 36.7823 37.4832 36.8759L42.0648 41.4575C42.1584 41.5511 42.1584 41.7023 42.0648 41.7959C42.0168 41.8439 41.9568 41.8655 41.8944 41.8655H41.8968Z" fill="#231F20"/>
<path d="M40.6656 5.25103C40.989 5.25103 41.2512 4.98885 41.2512 4.66543C41.2512 4.34202 40.989 4.07983 40.6656 4.07983C40.3422 4.07983 40.08 4.34202 40.08 4.66543C40.08 4.98885 40.3422 5.25103 40.6656 5.25103Z" fill="black"/>
<path d="M6.00007 5.57285C5.86807 5.57285 5.76007 5.46485 5.76007 5.33285V3.66725C5.76007 3.53525 5.86807 3.42725 6.00007 3.42725C6.13207 3.42725 6.24007 3.53525 6.24007 3.66725V5.33285C6.24007 5.46485 6.13207 5.57285 6.00007 5.57285Z" fill="#222222"/>
<path d="M6.83285 4.74001H5.16725C5.03525 4.74001 4.92725 4.63201 4.92725 4.50001C4.92725 4.36801 5.03525 4.26001 5.16725 4.26001H6.83285C6.96485 4.26001 7.07285 4.36801 7.07285 4.50001C7.07285 4.63201 6.96485 4.74001 6.83285 4.74001Z" fill="#222222"/>
</svg>
