<svg width="48" height="48" viewBox="0 0 48 48" fill="none" xmlns="http://www.w3.org/2000/svg">
<path d="M24.0001 46.6654C36.5179 46.6654 46.6657 36.5177 46.6657 23.9998C46.6657 11.482 36.5179 1.33423 24.0001 1.33423C11.4822 1.33423 1.33447 11.482 1.33447 23.9998C1.33447 36.5177 11.4822 46.6654 24.0001 46.6654Z" fill="#3CB2FF"/>
<path d="M24.0001 46.9054C11.3689 46.9054 1.09448 36.6286 1.09448 23.9998C1.09448 11.371 11.3689 1.09424 24.0001 1.09424C36.6313 1.09424 46.9057 11.371 46.9057 23.9998C46.9057 36.6286 36.6289 46.9054 24.0001 46.9054ZM24.0001 1.57184C11.6329 1.57424 1.57448 11.6326 1.57448 23.9998C1.57448 36.367 11.6353 46.4254 24.0001 46.4254C36.3649 46.4254 46.4257 36.3646 46.4257 23.9998C46.4257 11.635 36.3673 1.57424 24.0001 1.57424V1.57184Z" fill="#231F20"/>
<path d="M36.0001 23.9999C40.4179 23.9999 43.9993 20.4185 43.9993 16.0007C43.9993 11.5828 40.4179 8.00146 36.0001 8.00146C31.5822 8.00146 28.0009 11.5828 28.0009 16.0007C28.0009 20.4185 31.5822 23.9999 36.0001 23.9999Z" fill="#57D5D4"/>
<path d="M36.0001 24.2401C31.4569 24.2401 27.7609 20.5441 27.7609 16.0009C27.7609 11.4577 31.4569 7.76172 36.0001 7.76172C40.5433 7.76172 44.2393 11.4577 44.2393 16.0009C44.2393 20.5441 40.5433 24.2401 36.0001 24.2401ZM36.0001 8.23932C31.7209 8.23932 28.2409 11.7193 28.2409 15.9985C28.2409 20.2777 31.7209 23.7577 36.0001 23.7577C40.2793 23.7577 43.7593 20.2777 43.7593 15.9985C43.7593 11.7193 40.2793 8.23932 36.0001 8.23932Z" fill="#231F20"/>
<path d="M25.0008 5.99731H5.66644C4.00959 5.99731 2.66644 7.34046 2.66644 8.99732C2.66644 10.6542 4.00959 11.9973 5.66644 11.9973H25.0008C26.6577 11.9973 28.0008 10.6542 28.0008 8.99732C28.0008 7.34046 26.6577 5.99731 25.0008 5.99731Z" fill="#FFB019"/>
<path d="M25.0009 12.2373H5.66645C3.88085 12.2373 2.42645 10.7829 2.42645 8.99732C2.42645 7.21172 3.88085 5.75732 5.66645 5.75732H25.0009C26.7865 5.75732 28.2409 7.21172 28.2409 8.99732C28.2409 10.7829 26.7865 12.2373 25.0009 12.2373ZM5.66645 6.23732C4.14485 6.23732 2.90645 7.47572 2.90645 8.99732C2.90645 10.5189 4.14485 11.7573 5.66645 11.7573H25.0009C26.5225 11.7573 27.7609 10.5189 27.7609 8.99732C27.7609 7.47572 26.5225 6.23732 25.0009 6.23732H5.66645Z" fill="#231F20"/>
<path d="M25.0008 12H5.66644C4.00959 12 2.66644 13.3431 2.66644 15C2.66644 16.6569 4.00959 18 5.66644 18H25.0008C26.6577 18 28.0008 16.6569 28.0008 15C28.0008 13.3431 26.6577 12 25.0008 12Z" fill="#FFB019"/>
<path d="M25.0009 18.24H5.66645C3.88085 18.24 2.42645 16.7856 2.42645 15C2.42645 13.2144 3.88085 11.76 5.66645 11.76H25.0009C26.7865 11.76 28.2409 13.2144 28.2409 15C28.2409 16.7856 26.7865 18.24 25.0009 18.24ZM5.66645 12.24C4.14485 12.24 2.90645 13.4784 2.90645 15C2.90645 16.5216 4.14485 17.76 5.66645 17.76H25.0009C26.5225 17.76 27.7609 16.5216 27.7609 15C27.7609 13.4784 26.5225 12.24 25.0009 12.24H5.66645Z" fill="#231F20"/>
<path d="M25.0008 18H5.66644C4.00959 18 2.66644 19.3431 2.66644 21C2.66644 22.6569 4.00959 24 5.66644 24H25.0008C26.6577 24 28.0008 22.6569 28.0008 21C28.0008 19.3431 26.6577 18 25.0008 18Z" fill="#FFB019"/>
<path d="M25.0009 24.24H5.66645C3.88085 24.24 2.42645 22.7856 2.42645 21C2.42645 19.2144 3.88085 17.76 5.66645 17.76H25.0009C26.7865 17.76 28.2409 19.2144 28.2409 21C28.2409 22.7856 26.7865 24.24 25.0009 24.24ZM5.66645 18.24C4.14485 18.24 2.90645 19.4784 2.90645 21C2.90645 22.5216 4.14485 23.76 5.66645 23.76H25.0009C26.5225 23.76 27.7609 22.5216 27.7609 21C27.7609 19.4784 26.5225 18.24 25.0009 18.24H5.66645Z" fill="#231F20"/>
<path d="M25.0008 24H5.66644C4.00959 24 2.66644 25.3431 2.66644 27C2.66644 28.6569 4.00959 30 5.66644 30H25.0008C26.6577 30 28.0008 28.6569 28.0008 27C28.0008 25.3431 26.6577 24 25.0008 24Z" fill="#FFB019"/>
<path d="M25.0009 30.24H5.66645C3.88085 30.24 2.42645 28.7856 2.42645 27C2.42645 25.2144 3.88085 23.76 5.66645 23.76H25.0009C26.7865 23.76 28.2409 25.2144 28.2409 27C28.2409 28.7856 26.7865 30.24 25.0009 30.24ZM5.66645 24.24C4.14485 24.24 2.90645 25.4784 2.90645 27C2.90645 28.5216 4.14485 29.76 5.66645 29.76H25.0009C26.5225 29.76 27.7609 28.5216 27.7609 27C27.7609 25.4784 26.5225 24.24 25.0009 24.24H5.66645Z" fill="#231F20"/>
<path d="M25.0008 30H5.66644C4.00959 30 2.66644 31.3431 2.66644 33C2.66644 34.6569 4.00959 36 5.66644 36H25.0008C26.6577 36 28.0008 34.6569 28.0008 33C28.0008 31.3431 26.6577 30 25.0008 30Z" fill="#FFB019"/>
<path d="M25.0009 36.24H5.66645C3.88085 36.24 2.42645 34.7856 2.42645 33C2.42645 31.2144 3.88085 29.76 5.66645 29.76H25.0009C26.7865 29.76 28.2409 31.2144 28.2409 33C28.2409 34.7856 26.7865 36.24 25.0009 36.24ZM5.66645 30.24C4.14485 30.24 2.90645 31.4784 2.90645 33C2.90645 34.5216 4.14485 35.76 5.66645 35.76H25.0009C26.5225 35.76 27.7609 34.5216 27.7609 33C27.7609 31.4784 26.5225 30.24 25.0009 30.24H5.66645Z" fill="#231F20"/>
<path d="M42.3336 24H22.9992C21.3424 24 19.9992 25.3431 19.9992 27C19.9992 28.6569 21.3424 30 22.9992 30H42.3336C43.9905 30 45.3336 28.6569 45.3336 27C45.3336 25.3431 43.9905 24 42.3336 24Z" fill="#FFB019"/>
<path d="M42.3336 30.24H22.9992C21.2136 30.24 19.7592 28.7856 19.7592 27C19.7592 25.2144 21.2136 23.76 22.9992 23.76H42.3336C44.1192 23.76 45.5736 25.2144 45.5736 27C45.5736 28.7856 44.1192 30.24 42.3336 30.24ZM22.9992 24.24C21.4776 24.24 20.2392 25.4784 20.2392 27C20.2392 28.5216 21.4776 29.76 22.9992 29.76H42.3336C43.8552 29.76 45.0936 28.5216 45.0936 27C45.0936 25.4784 43.8552 24.24 42.3336 24.24H22.9992Z" fill="#231F20"/>
<path d="M42.3336 30H22.9992C21.3424 30 19.9992 31.3431 19.9992 33C19.9992 34.6569 21.3424 36 22.9992 36H42.3336C43.9905 36 45.3336 34.6569 45.3336 33C45.3336 31.3431 43.9905 30 42.3336 30Z" fill="#FFB019"/>
<path d="M42.3336 36.24H22.9992C21.2136 36.24 19.7592 34.7856 19.7592 33C19.7592 31.2144 21.2136 29.76 22.9992 29.76H42.3336C44.1192 29.76 45.5736 31.2144 45.5736 33C45.5736 34.7856 44.1192 36.24 42.3336 36.24ZM22.9992 30.24C21.4776 30.24 20.2392 31.4784 20.2392 33C20.2392 34.5216 21.4776 35.76 22.9992 35.76H42.3336C43.8552 35.76 45.0936 34.5216 45.0936 33C45.0936 31.4784 43.8552 30.24 42.3336 30.24H22.9992Z" fill="#231F20"/>
<path d="M25.0008 36H5.66644C4.00959 36 2.66644 37.3431 2.66644 39C2.66644 40.6569 4.00959 42 5.66644 42H25.0008C26.6577 42 28.0008 40.6569 28.0008 39C28.0008 37.3431 26.6577 36 25.0008 36Z" fill="#FFB019"/>
<path d="M25.0009 42.24H5.66645C3.88085 42.24 2.42645 40.7856 2.42645 39C2.42645 37.2144 3.88085 35.76 5.66645 35.76H25.0009C26.7865 35.76 28.2409 37.2144 28.2409 39C28.2409 40.7856 26.7865 42.24 25.0009 42.24ZM5.66645 36.24C4.14485 36.24 2.90645 37.4784 2.90645 39C2.90645 40.5216 4.14485 41.76 5.66645 41.76H25.0009C26.5225 41.76 27.7609 40.5216 27.7609 39C27.7609 37.4784 26.5225 36.24 25.0009 36.24H5.66645Z" fill="#231F20"/>
<path d="M42.3336 36H22.9992C21.3424 36 19.9992 37.3431 19.9992 39C19.9992 40.6569 21.3424 42 22.9992 42H42.3336C43.9905 42 45.3336 40.6569 45.3336 39C45.3336 37.3431 43.9905 36 42.3336 36Z" fill="#FFB019"/>
<path d="M42.3336 42.24H22.9992C21.2136 42.24 19.7592 40.7856 19.7592 39C19.7592 37.2144 21.2136 35.76 22.9992 35.76H42.3336C44.1192 35.76 45.5736 37.2144 45.5736 39C45.5736 40.7856 44.1192 42.24 42.3336 42.24ZM22.9992 36.24C21.4776 36.24 20.2392 37.4784 20.2392 39C20.2392 40.5216 21.4776 41.76 22.9992 41.76H42.3336C43.8552 41.76 45.0936 40.5216 45.0936 39C45.0936 37.4784 43.8552 36.24 42.3336 36.24H22.9992Z" fill="#231F20"/>
<path d="M34.668 18.9072C34.6032 18.9072 34.5432 18.8808 34.4976 18.8376L31.8312 16.1712C31.7376 16.0776 31.7376 15.9264 31.8312 15.8328C31.9248 15.7392 32.076 15.7392 32.1696 15.8328L34.6656 18.3312L39.828 13.1688C39.9216 13.0752 40.0728 13.0752 40.1664 13.1688C40.26 13.2624 40.26 13.4136 40.1664 13.5072L34.8336 18.84C34.788 18.8856 34.728 18.9096 34.6632 18.9096L34.668 18.9072Z" fill="#231F20"/>
</svg>
