<svg width="31" height="31" viewBox="0 0 31 31" fill="none" xmlns="http://www.w3.org/2000/svg">
<path fill-rule="evenodd" clip-rule="evenodd" d="M2.2692 28.7308C4.5415 31 8.1933 31 15.5 31C22.8067 31 26.46 31 28.7292 28.7292C31 26.4616 31 22.8067 31 15.5C31 8.1933 31 4.53995 28.7292 2.2692C26.4616 0 22.8067 0 15.5 0C8.1933 0 4.53995 0 2.2692 2.2692C0 4.5415 0 8.1933 0 15.5C0 22.8067 0 26.4616 2.2692 28.7308ZM8.62575 17.1554C8.42288 16.9231 8.13605 16.781 7.82836 16.7602C7.52068 16.7394 7.21734 16.8417 6.98507 17.0446C6.75281 17.2474 6.61065 17.5343 6.58987 17.842C6.56908 18.1496 6.67138 18.453 6.87425 18.6852L11.5243 24.0126C11.6798 24.1907 11.8859 24.3172 12.1152 24.3752C12.3444 24.4331 12.5859 24.4197 12.8074 24.3369C13.0288 24.254 13.2198 24.1056 13.3547 23.9114C13.4896 23.7172 13.5621 23.4865 13.5625 23.25V7.75C13.5625 7.44169 13.44 7.146 13.222 6.92799C13.004 6.70998 12.7083 6.5875 12.4 6.5875C12.0917 6.5875 11.796 6.70998 11.578 6.92799C11.36 7.146 11.2375 7.44169 11.2375 7.75V20.15L8.62575 17.1554ZM18.1924 6.66035C17.9705 6.74342 17.7793 6.8923 17.6444 7.08704C17.5095 7.28178 17.4373 7.51309 17.4375 7.75V23.25C17.4375 23.5583 17.56 23.854 17.778 24.072C17.996 24.29 18.2917 24.4125 18.6 24.4125C18.9083 24.4125 19.204 24.29 19.422 24.072C19.64 23.854 19.7625 23.5583 19.7625 23.25V10.85L22.3742 13.8415C22.5789 14.0667 22.8636 14.2027 23.1674 14.2203C23.4711 14.238 23.7697 14.1358 23.999 13.9357C24.2283 13.7357 24.3699 13.4537 24.3936 13.1503C24.4173 12.847 24.3212 12.5464 24.1257 12.3132L19.4757 6.98585C19.3204 6.80744 19.1142 6.6807 18.8849 6.62253C18.6556 6.56437 18.414 6.57756 18.1924 6.66035Z" fill="black"/>
</svg>
