<svg width="12" height="13" viewBox="0 0 12 13" fill="none" xmlns="http://www.w3.org/2000/svg">
<g clip-path="url(#clip0_7015_37088)">
<rect y="0.706543" width="12" height="12" rx="2" fill="#16AA00"/>
<path fill-rule="evenodd" clip-rule="evenodd" d="M9.12778 5.14001C9.20591 5.21814 9.24497 5.313 9.24497 5.42461C9.24497 5.53622 9.20591 5.63108 9.12778 5.70921L6.09766 8.73933L5.52846 9.30853C5.45034 9.38665 5.35547 9.42572 5.24386 9.42572C5.13226 9.42572 5.03739 9.38665 4.95926 9.30853L4.39007 8.73933L2.875 7.22426C2.79688 7.14614 2.75781 7.05127 2.75781 6.93967C2.75781 6.82806 2.79688 6.73319 2.875 6.65507L3.4442 6.08587C3.52232 6.00775 3.61719 5.96868 3.72879 5.96868C3.8404 5.96868 3.93527 6.00775 4.01339 6.08587L5.24386 7.32053L7.98939 4.5708C8.06751 4.49268 8.16238 4.45361 8.27398 4.45361C8.38559 4.45361 8.48046 4.49268 8.55858 4.5708L9.12778 5.14001Z" fill="white"/>
</g>
<defs>
<clipPath id="clip0_7015_37088">
<rect y="0.706543" width="12" height="12" rx="6" fill="white"/>
</clipPath>
</defs>
</svg>
