<svg width="27" height="27" viewBox="0 0 27 27" fill="none" xmlns="http://www.w3.org/2000/svg">
<path d="M13.5 7.71301e-06C20.9561 7.71301e-06 27 6.04396 27 13.5C27 20.9561 20.9561 27 13.5 27C6.04395 27 0 20.9561 0 13.5H2.7C2.7002 16.0397 3.5954 18.498 5.22832 20.4432C6.86124 22.3883 9.12741 23.6957 11.6287 24.1358C14.1299 24.5758 16.7063 24.1204 18.905 22.8493C21.1037 21.5783 22.7842 19.5731 23.6512 17.186C24.5182 14.7989 24.5162 12.1826 23.6456 9.79684C22.775 7.41106 21.0914 5.40841 18.8907 4.14075C16.6901 2.87309 14.113 2.42152 11.6125 2.86538C9.11188 3.30925 6.8477 4.62015 5.21775 6.56776L8.1 9.45001H0V1.35001L3.30345 4.65211C4.56942 3.1901 6.13539 2.01786 7.89487 1.21512C9.65434 0.412368 11.5661 -0.00206184 13.5 7.71301e-06ZM14.85 6.75001V12.9398L19.2281 17.3178L17.3178 19.2281L12.15 14.0576V6.75001H14.85Z" fill="#373737"/>
</svg>
