<svg width="39" height="32" viewBox="0 0 39 32" fill="none" xmlns="http://www.w3.org/2000/svg">
<path d="M19.6639 0C19.6229 0 19.5655 5.71211e-08 19.5164 0.00813893C19.1395 0.0657893 18.6889 0.354041 18.3939 1.01261C18.0826 1.6705 18.017 2.60851 18.2874 3.61298C18.566 4.60524 19.1395 5.4605 19.7786 5.98275C20.4013 6.50499 20.9666 6.64742 21.3435 6.59316C21.7368 6.54569 22.171 6.24726 22.466 5.59615C22.7773 4.94233 22.8592 3.99144 22.5807 2.9951C22.2939 1.99131 21.7286 1.14419 21.0895 0.625337C20.5487 0.164134 20.0489 0 19.6639 0ZM29.1189 8.78387C28.2176 8.80422 27.0788 9.00091 25.9727 9.38751C24.6945 9.84871 23.7113 10.4659 23.1706 11.0492C22.6298 11.6121 22.5807 12.0394 22.7527 12.2904C22.933 12.5413 23.4328 12.7787 24.3914 12.8126C25.35 12.8601 26.6445 12.6634 27.9145 12.2158C29.1845 11.7613 30.184 11.1374 30.7248 10.5676C31.2655 10.0047 31.3065 9.56385 31.1345 9.3129C30.9624 9.05517 30.4544 8.83135 29.4958 8.80422C29.3647 8.78388 29.25 8.78387 29.1189 8.78387ZM17.9515 15.0847C17.4107 15.0915 16.9191 15.1458 16.4767 15.2407C15.5099 15.4442 14.9527 15.8104 14.7725 16.2513C14.5676 16.6921 14.7725 17.2212 15.4116 17.7909C16.0834 18.347 17.1895 18.8829 18.566 19.1813C19.9342 19.4797 21.2534 19.4729 22.2366 19.2559C23.2279 19.0456 23.7851 18.6726 23.9653 18.2385C24.1538 17.7977 23.9653 17.2754 23.3017 16.6989C22.6544 16.1428 21.5483 15.607 20.1719 15.3153C19.3935 15.1458 18.6315 15.0779 17.9515 15.0847ZM31.1181 19.0253L26.0546 21.0125C26.3987 21.0261 27.259 21.0464 27.259 21.0464L27.7998 21.6365L32.2815 19.7035L31.1181 19.0253ZM26.6527 19.0321L21.9498 20.8769C22.4004 20.8972 23.4655 20.9108 23.8916 20.9311L27.9718 19.3305L26.6527 19.0321ZM34.2397 19.7646L28.4634 22.3012L29.6515 23.5695L35.7555 20.5445L34.2397 19.7646ZM11.3968 20.3818C11.1488 20.3814 10.9014 20.4041 10.6595 20.4496C4.80126 21.5687 1.3437 21.6636 0.319538 21.6636H0V28.9547C0 28.9547 0.95042 28.8394 2.53172 28.8326C5.58782 28.8326 10.9708 29.2667 16.2145 31.8033C16.4931 31.9457 17.0912 32 17.8368 32C19.8277 32 22.8511 31.6066 23.5475 31.3896C30.5609 29.2124 39 23.2372 39 23.2372L36.3372 21.311C36.3372 21.311 29.799 24.7632 28.9714 25.0955C21.5074 28.1273 15.4607 26.235 15.4607 26.235C15.4607 26.235 25.2845 26.4384 28.4389 24.3834L26.5872 22.0774C26.5872 22.0774 19.8032 21.9214 17.3861 21.6569C16.1244 21.5212 13.396 20.3818 11.3968 20.3818Z" fill="#393939"/>
</svg>
