<svg width="30" height="30" viewBox="0 0 30 30" fill="none" xmlns="http://www.w3.org/2000/svg">
<path d="M28.8 0H1.2C0.53625 0 0 0.53625 0 1.2V28.8C0 29.4637 0.53625 30 1.2 30H28.8C29.4637 30 30 29.4637 30 28.8V1.2C30 0.53625 29.4637 0 28.8 0ZM12.3075 24.4875H10.4025C10.32 24.4875 10.2337 24.4462 10.1812 24.3787L8.85 22.7475L7.51875 24.3787C7.49278 24.4127 7.45929 24.4403 7.4209 24.4591C7.38251 24.478 7.34027 24.4877 7.2975 24.4875H5.3925C5.145 24.4875 5.01 24.1912 5.175 23.9963L7.52625 21.1162L5.23125 18.3075C5.07 18.1125 5.205 17.8162 5.4525 17.8162H7.36125C7.44375 17.8162 7.53 17.8575 7.5825 17.925L8.8575 19.485L10.1325 17.925C10.1888 17.8537 10.2675 17.8162 10.3537 17.8162H12.2587C12.5062 17.8162 12.6412 18.1125 12.48 18.3075L10.1812 21.1125L12.5325 23.9925C12.69 24.1912 12.555 24.4875 12.3075 24.4875ZM12.6 10.1625C12.6 10.245 12.5475 10.3125 12.48 10.3125H9.9V12.8888C9.9 12.96 9.8325 13.0125 9.75 13.0125H7.95C7.8675 13.0125 7.8 12.96 7.8 12.8925V10.3125H5.22C5.1525 10.3125 5.1 10.245 5.1 10.1625V8.3625C5.1 8.28 5.1525 8.2125 5.22 8.2125H7.8V5.6325C7.8 5.565 7.8675 5.5125 7.95 5.5125H9.75C9.8325 5.5125 9.9 5.565 9.9 5.6325V8.2125H12.4763C12.5475 8.2125 12.6 8.28 12.6 8.3625V10.1625ZM24.9 24C24.9 24.0825 24.8475 24.15 24.78 24.15H17.52C17.4525 24.15 17.4 24.0825 17.4 24V22.2C17.4 22.1175 17.4525 22.05 17.52 22.05H24.7762C24.8475 22.05 24.9 22.1175 24.9 22.2V24ZM24.9 20.1C24.9 20.1825 24.8475 20.25 24.78 20.25H17.52C17.4525 20.25 17.4 20.1825 17.4 20.1V18.3C17.4 18.2175 17.4525 18.15 17.52 18.15H24.7762C24.8475 18.15 24.9 18.2175 24.9 18.3V20.1ZM24.9 10.1625C24.9 10.245 24.8475 10.3125 24.78 10.3125H17.52C17.4525 10.3125 17.4 10.245 17.4 10.1625V8.3625C17.4 8.28 17.4525 8.2125 17.52 8.2125H24.7762C24.8475 8.2125 24.9 8.28 24.9 8.3625V10.1625Z" fill="#393939"/>
</svg>
