<svg width="48" height="48" viewBox="0 0 48 48" fill="none" xmlns="http://www.w3.org/2000/svg">
<path d="M24 46.6657C36.5179 46.6657 46.6656 36.5179 46.6656 24.0001C46.6656 11.4822 36.5179 1.33447 24 1.33447C11.4821 1.33447 1.33441 11.4822 1.33441 24.0001C1.33441 36.5179 11.4821 46.6657 24 46.6657Z" fill="#3CB2FF"/>
<path d="M24 46.9057C11.3688 46.9057 1.09439 36.6289 1.09439 24.0001C1.09439 11.3713 11.3712 1.09448 24 1.09448C36.6288 1.09448 46.9056 11.3713 46.9056 24.0001C46.9056 36.6289 36.6288 46.9057 24 46.9057ZM24 1.57208C11.6328 1.57208 1.57439 11.6329 1.57439 23.9977C1.57439 36.3625 11.6352 46.4233 24 46.4233C36.3648 46.4233 46.4256 36.3625 46.4256 23.9977C46.4256 11.6329 36.3672 1.57448 24 1.57448V1.57208Z" fill="#231F20"/>
<path d="M16.0007 10.6654C15.7223 10.6654 15.4511 10.6966 15.1919 10.7566C14.4887 9.77264 13.3367 9.13184 12.0335 9.13184C10.2335 9.13184 8.7191 10.3582 8.2799 12.0214C7.9991 11.8798 7.68231 11.7982 7.34631 11.7982C6.20151 11.7982 5.27271 12.727 5.27271 13.8742H19.5647C19.3775 12.0694 17.8511 10.6654 15.9983 10.6654H16.0007Z" fill="white"/>
<path d="M19.5672 14.1166H5.27519C5.14319 14.1166 5.03519 14.0086 5.03519 13.8766C5.03519 12.5998 6.07439 11.5606 7.34879 11.5606C7.61759 11.5606 7.87919 11.6062 8.12879 11.695C8.68799 10.0318 10.2576 8.89185 12.0336 8.89185C13.308 8.89185 14.5128 9.48705 15.2928 10.4902C15.5256 10.447 15.7632 10.4254 16.0008 10.4254C17.9664 10.4254 19.6008 11.8966 19.8048 13.8502C19.812 13.9174 19.7904 13.9846 19.7448 14.035C19.6992 14.0854 19.6344 14.1142 19.5672 14.1142V14.1166ZM5.52959 13.6366H19.2888C18.9984 12.0622 17.628 10.9078 16.0008 10.9078C15.7464 10.9078 15.492 10.9366 15.2472 10.9942C15.1536 11.0158 15.0552 10.9798 14.9976 10.9006C14.3136 9.94545 13.2072 9.37665 12.036 9.37665C10.3824 9.37665 8.93519 10.4926 8.51519 12.0886C8.49599 12.1582 8.44799 12.2158 8.38079 12.247C8.31359 12.2758 8.23919 12.2758 8.17439 12.2422C7.91519 12.1126 7.63919 12.0454 7.34879 12.0454C6.41759 12.0454 5.64719 12.7414 5.52959 13.6414V13.6366Z" fill="#231F20"/>
<path d="M39.1032 5.65188C38.8944 5.65188 38.6928 5.67588 38.4984 5.72148C37.9728 4.98708 37.1112 4.50708 36.1392 4.50708C34.7928 4.50708 33.6624 5.42388 33.3336 6.66708C33.1248 6.56148 32.8872 6.50148 32.6352 6.50148C31.7784 6.50148 31.0848 7.19508 31.0848 8.05188H41.7672C41.6256 6.70308 40.488 5.65188 39.1032 5.65188Z" fill="white"/>
<path d="M41.7696 8.29189H31.0872C30.9552 8.29189 30.8472 8.18389 30.8472 8.05189C30.8472 7.06549 31.6512 6.26149 32.6376 6.26149C32.8248 6.26149 33.0096 6.29029 33.1848 6.34549C33.6288 5.10949 34.8072 4.26709 36.1416 4.26709C37.0992 4.26709 38.0088 4.70869 38.6016 5.45749C38.7672 5.42869 38.9352 5.41429 39.1056 5.41429C40.6056 5.41429 41.8536 6.53749 42.0096 8.02789C42.0168 8.09509 41.9952 8.16229 41.9496 8.21269C41.904 8.26309 41.8392 8.29189 41.772 8.29189H41.7696ZM31.3488 7.81189H41.4888C41.2488 6.70069 40.2672 5.89189 39.1056 5.89189C38.9208 5.89189 38.736 5.91349 38.556 5.95429C38.4624 5.97589 38.364 5.93989 38.3064 5.86069C37.8072 5.16229 36.9984 4.74709 36.1416 4.74709C34.9344 4.74709 33.876 5.56069 33.5688 6.72709C33.5496 6.79669 33.5016 6.85429 33.4344 6.88549C33.3696 6.91429 33.2928 6.91429 33.228 6.88069C33.0432 6.78709 32.8464 6.74149 32.6376 6.74149C31.9968 6.74149 31.4616 7.20469 31.3488 7.81189Z" fill="#231F20"/>
<path d="M30.7056 30.355L31.4616 31.9054C33.0912 35.2414 33.6264 39.007 32.9904 42.6646H31.1736L28.9392 39.9286L29.2872 38.671C29.8536 36.631 30.252 34.5478 30.4776 32.4406L30.7032 30.355H30.7056Z" fill="#38A4A4"/>
<path d="M33.192 42.9072H31.0584L28.6728 39.9864L29.0544 38.6088C29.6136 36.588 30.012 34.5048 30.2376 32.4168L30.552 29.5032L31.6728 31.8C33.3336 35.2032 33.8712 38.976 33.2232 42.7056L33.1896 42.9048L33.192 42.9072ZM31.2864 42.4272H32.7864C33.3648 38.8608 32.832 35.2632 31.2456 32.0112L30.8544 31.2072L30.7176 32.4672C30.4896 34.5792 30.0864 36.6888 29.52 38.736L29.2056 39.876L31.2888 42.4272H31.2864Z" fill="#231F20"/>
<path d="M17.2968 30.355L16.5408 31.9054C14.9112 35.2414 14.376 39.007 15.012 42.6646H16.8288L19.0632 39.9286L18.7152 38.671C18.1488 36.631 17.7504 34.5478 17.5248 32.4406L17.2992 30.355H17.2968Z" fill="#38A4A4"/>
<path d="M16.9416 42.907H14.808L14.7744 42.7078C14.1264 38.9758 14.6616 35.2054 16.3248 31.8022L17.4456 29.5054L17.76 32.419C17.9856 34.5046 18.384 36.5878 18.9432 38.611L19.3248 39.9886L16.9392 42.9094L16.9416 42.907ZM15.2136 42.427H16.7136L18.7968 39.8758L18.4824 38.7358C17.916 36.6886 17.5128 34.579 17.2848 32.467L17.148 31.207L16.7568 32.011C15.168 35.263 14.6376 38.8582 15.216 42.427H15.2136Z" fill="#231F20"/>
<path d="M30.4632 39.9313H17.5368L15.8496 27.9049C14.7864 20.3281 17.256 12.6841 22.5504 7.16166L24 5.64966L25.4496 7.16166C30.744 12.6841 33.2136 20.3281 32.1504 27.9049L30.4632 39.9313Z" fill="#57D5D4"/>
<path d="M30.4632 40.1712H17.5368C17.4168 40.1712 17.316 40.0824 17.2992 39.9648L15.612 27.9384C14.532 20.2392 16.9968 12.6072 22.3776 6.99602L23.8272 5.48402C23.9184 5.39042 24.084 5.39042 24.1728 5.48402L25.6224 6.99602C31.0032 12.6072 33.468 20.2392 32.388 27.9384L30.7008 39.9648C30.684 40.0824 30.5832 40.1712 30.4632 40.1712ZM17.7456 39.6912H30.2544L31.9128 27.8712C32.9736 20.3208 30.5544 12.8328 25.2768 7.32722L24 5.99522L22.7232 7.32722C17.4456 12.8304 15.0264 20.3184 16.0872 27.8712L17.7456 39.6912Z" fill="#231F20"/>
<path d="M24 41.9734C24.2856 41.9734 24.5208 41.7526 24.5424 41.467L25.4688 31.699C25.5504 30.8326 24.8712 30.0862 24.0024 30.0862C23.1336 30.0862 22.452 30.835 22.536 31.699L23.4624 41.467C23.4816 41.7526 23.7192 41.9734 24.0048 41.9734H24Z" fill="#38A4A4"/>
<path d="M24 42.2134C23.5896 42.2134 23.2464 41.8942 23.22 41.4838L22.2936 31.7206C22.248 31.2406 22.4088 30.7606 22.7328 30.4054C23.0568 30.0502 23.52 29.8438 24 29.8438C24.48 29.8438 24.9432 30.0478 25.2672 30.4054C25.5912 30.7606 25.752 31.2406 25.7064 31.7206L24.78 41.4886C24.7536 41.8918 24.4104 42.211 24 42.211V42.2134ZM24 30.3262C23.6472 30.3262 23.3232 30.4701 23.088 30.7293C22.8504 30.9885 22.74 31.327 22.7712 31.6774L23.6976 41.4454C23.7096 41.6086 23.8416 41.7334 24 41.7334C24.1584 41.7334 24.2904 41.6086 24.3024 41.4526L25.2288 31.6774C25.2624 31.327 25.1496 30.9909 24.912 30.7293C24.6744 30.4701 24.3504 30.3262 24 30.3262Z" fill="#231F20"/>
<path d="M24 24.8568C21.54 24.8568 19.5384 22.8552 19.5384 20.3952C19.5384 17.9352 21.54 15.9336 24 15.9336C26.46 15.9336 28.4616 17.9352 28.4616 20.3952C28.4616 22.8552 26.46 24.8568 24 24.8568ZM24 16.416C21.804 16.416 20.0184 18.2016 20.0184 20.3976C20.0184 22.5936 21.804 24.3792 24 24.3792C26.196 24.3792 27.9816 22.5936 27.9816 20.3976C27.9816 18.2016 26.196 16.416 24 16.416Z" fill="#231F20"/>
<path d="M24 24.6168C26.3315 24.6168 28.2216 22.7267 28.2216 20.3952C28.2216 18.0637 26.3315 16.1736 24 16.1736C21.6685 16.1736 19.7784 18.0637 19.7784 20.3952C19.7784 22.7267 21.6685 24.6168 24 24.6168Z" fill="#FFF4DF"/>
<path d="M24 24.8568C21.54 24.8568 19.5384 22.8552 19.5384 20.3952C19.5384 17.9352 21.54 15.9336 24 15.9336C26.46 15.9336 28.4616 17.9352 28.4616 20.3952C28.4616 22.8552 26.46 24.8568 24 24.8568ZM24 16.416C21.804 16.416 20.0184 18.2016 20.0184 20.3976C20.0184 22.5936 21.804 24.3792 24 24.3792C26.196 24.3792 27.9816 22.5936 27.9816 20.3976C27.9816 18.2016 26.196 16.416 24 16.416Z" fill="#231F20"/>
<path d="M36.8616 42.9072H11.1432C11.0112 42.9072 10.9032 42.7992 10.9032 42.6672C10.9032 42.5352 11.0112 42.4272 11.1432 42.4272H36.8616C36.9936 42.4272 37.1016 42.5352 37.1016 42.6672C37.1016 42.7992 36.9936 42.9072 36.8616 42.9072Z" fill="#231F20"/>
</svg>
