<svg width="48" height="48" viewBox="0 0 48 48" fill="none" xmlns="http://www.w3.org/2000/svg">
<path d="M24 46.6657C36.5179 46.6657 46.6656 36.5179 46.6656 24.0001C46.6656 11.4822 36.5179 1.33447 24 1.33447C11.4821 1.33447 1.33441 11.4822 1.33441 24.0001C1.33441 36.5179 11.4821 46.6657 24 46.6657Z" fill="#3CB2FF"/>
<path d="M24 46.9057C11.3688 46.9057 1.09439 36.6289 1.09439 24.0001C1.09439 11.3713 11.3688 1.09448 24 1.09448C36.6312 1.09448 46.9056 11.3713 46.9056 24.0001C46.9056 36.6289 36.6288 46.9057 24 46.9057ZM24 1.57208C11.6328 1.57208 1.57439 11.6329 1.57439 23.9977C1.57439 36.3625 11.6352 46.4233 24 46.4233C36.3648 46.4233 46.4256 36.3625 46.4256 23.9977C46.4256 11.6329 36.3648 1.57448 24 1.57448V1.57208Z" fill="#231F20"/>
<path d="M43.4136 46.1593C42.9576 46.1593 42.588 45.7897 42.588 45.3337C42.588 44.8777 42.9576 44.5081 43.4136 44.5081C43.8696 44.5081 44.2392 44.8777 44.2392 45.3337C44.2392 45.7897 43.8696 46.1593 43.4136 46.1593ZM43.4136 44.9881C43.224 44.9881 43.068 45.1441 43.068 45.3337C43.068 45.5233 43.224 45.6793 43.4136 45.6793C43.6032 45.6793 43.7592 45.5233 43.7592 45.3337C43.7592 45.1441 43.6032 44.9881 43.4136 44.9881Z" fill="black"/>
<path d="M4.66566 5.57285C4.53366 5.57285 4.42566 5.46485 4.42566 5.33285V3.66725C4.42566 3.53525 4.53366 3.42725 4.66566 3.42725C4.79766 3.42725 4.90566 3.53525 4.90566 3.66725V5.33285C4.90566 5.46485 4.79766 5.57285 4.66566 5.57285Z" fill="#222222"/>
<path d="M5.49847 4.74001H3.83286C3.70086 4.74001 3.59286 4.63201 3.59286 4.50001C3.59286 4.36801 3.70086 4.26001 3.83286 4.26001H5.49847C5.63047 4.26001 5.73847 4.36801 5.73847 4.50001C5.73847 4.63201 5.63047 4.74001 5.49847 4.74001Z" fill="#222222"/>
<path d="M24 3.95264L26.6976 9.41984L32.7336 10.2958L28.3656 14.5534L29.3976 20.563L24 17.7262L18.6024 20.563L19.632 14.5534L15.2664 10.2958L21.3 9.41984L24 3.95264Z" fill="#FFF4DF"/>
<path d="M29.3976 20.8032C29.3592 20.8032 29.3208 20.7936 29.2848 20.7768L24 17.9976L18.7152 20.7768C18.6336 20.82 18.5376 20.8128 18.4632 20.7576C18.3888 20.7048 18.3528 20.6136 18.3672 20.5224L19.3776 14.6376L15.1008 10.4688C15.036 10.404 15.012 10.3104 15.0408 10.2216C15.0696 10.1352 15.144 10.0704 15.2352 10.0584L21.144 9.19921L23.7864 3.84481C23.868 3.68161 24.1368 3.68161 24.216 3.84481L26.8584 9.19921L32.7672 10.0584C32.8584 10.0704 32.9328 10.1352 32.9616 10.2216C32.9904 10.308 32.9664 10.404 32.9016 10.4688L28.6248 14.6376L29.6352 20.5224C29.6496 20.6136 29.6136 20.7024 29.5392 20.7576C29.4984 20.7888 29.448 20.8032 29.3976 20.8032ZM24 17.4864C24.0384 17.4864 24.0768 17.496 24.1128 17.5128L29.0808 20.124L28.1328 14.592C28.1184 14.5152 28.1448 14.4336 28.2024 14.3784L32.22 10.4616L26.6664 9.65521C26.5872 9.64321 26.52 9.59521 26.4864 9.52321L24.0024 4.49041L21.5184 9.52321C21.4824 9.59521 21.4152 9.64321 21.3384 9.65521L15.7848 10.4616L19.8024 14.3784C19.86 14.4336 19.884 14.5128 19.872 14.592L18.924 20.124L23.892 17.5128C23.928 17.4936 23.9664 17.4864 24.0048 17.4864H24Z" fill="#231F20"/>
<path d="M37.4232 11.9761L39.1032 15.3793L42.8616 15.9265L40.1424 18.5761L40.7856 22.3177L37.4232 20.5513L34.0632 22.3177L34.704 18.5761L31.9872 15.9265L35.7432 15.3793L37.4232 11.9761Z" fill="#FFB019"/>
<path d="M34.0632 22.5576C34.0128 22.5576 33.9648 22.5432 33.9216 22.512C33.8472 22.4592 33.8112 22.368 33.8256 22.2768L34.4472 18.66L31.8192 16.0992C31.7544 16.0344 31.7304 15.9408 31.7592 15.852C31.788 15.7656 31.8624 15.7008 31.9536 15.6888L35.5872 15.1608L37.212 11.8704C37.2936 11.7072 37.5624 11.7072 37.6416 11.8704L39.2664 15.1608L42.8976 15.6888C42.9888 15.7008 43.0632 15.7656 43.092 15.852C43.1208 15.9384 43.0968 16.0344 43.032 16.0992L40.404 18.66L41.0256 22.2768C41.04 22.368 41.004 22.4568 40.9296 22.512C40.8552 22.5648 40.7568 22.572 40.6776 22.5312L37.428 20.8224L34.1784 22.5312C34.1424 22.5504 34.104 22.5576 34.0656 22.5576H34.0632ZM37.4232 20.3112C37.4616 20.3112 37.5 20.3208 37.536 20.3376L40.4664 21.8784L39.9072 18.6168C39.8928 18.54 39.9192 18.4584 39.9768 18.4032L42.348 16.092L39.072 15.6168C38.9928 15.6048 38.9256 15.5568 38.892 15.4848L37.428 12.516L35.964 15.4848C35.928 15.5568 35.8608 15.6048 35.784 15.6168L32.508 16.092L34.8792 18.4032C34.9368 18.4584 34.9608 18.5376 34.9488 18.6168L34.3896 21.8784L37.32 20.3376C37.356 20.3184 37.3944 20.3112 37.4328 20.3112H37.4232Z" fill="#231F20"/>
<path d="M10.5744 11.9761L8.89437 15.3793L5.13837 15.9265L7.85517 18.5761L7.21437 22.3177L10.5744 20.5513L13.9344 22.3177L13.2936 18.5761L16.0128 15.9265L12.2544 15.3793L10.5744 11.9761Z" fill="#57D5D4"/>
<path d="M13.9344 22.5577C13.896 22.5577 13.8576 22.5481 13.8216 22.5313L10.572 20.8225L7.32237 22.5313C7.24077 22.5745 7.14236 22.5673 7.07036 22.5121C6.99596 22.4593 6.95997 22.3681 6.97437 22.2769L7.59596 18.6601L4.96797 16.0993C4.90317 16.0345 4.87917 15.9409 4.90797 15.8521C4.93677 15.7657 5.01117 15.7009 5.10237 15.6889L8.73357 15.1609L10.3584 11.8705C10.3992 11.7889 10.4832 11.7361 10.5744 11.7361C10.6656 11.7361 10.7496 11.7889 10.7904 11.8705L12.4152 15.1609L16.0488 15.6889C16.14 15.7009 16.2144 15.7657 16.2432 15.8521C16.272 15.9385 16.248 16.0345 16.1832 16.0993L13.5552 18.6601L14.1768 22.2769C14.1912 22.3681 14.1552 22.4569 14.0808 22.5121C14.04 22.5433 13.9896 22.5577 13.9392 22.5577H13.9344ZM5.65197 16.0921L8.02317 18.4033C8.08077 18.4585 8.10476 18.5377 8.09276 18.6169L7.53357 21.8785L10.464 20.3377C10.5336 20.3017 10.6176 20.3017 10.6872 20.3377L13.6176 21.8785L13.0584 18.6169C13.044 18.5401 13.0704 18.4585 13.128 18.4033L15.4992 16.0921L12.2232 15.6169C12.144 15.6049 12.0768 15.5569 12.0432 15.4849L10.5792 12.5161L9.11517 15.4849C9.07917 15.5569 9.01197 15.6049 8.93517 15.6169L5.65916 16.0921H5.65197Z" fill="#231F20"/>
<path d="M13.2312 28.7974H6.97439C5.69927 28.7974 4.66559 29.831 4.66559 31.1062V40.9894C4.66559 42.2645 5.69927 43.2982 6.97439 43.2982H13.2312C14.5063 43.2982 15.54 42.2645 15.54 40.9894V31.1062C15.54 29.831 14.5063 28.7974 13.2312 28.7974Z" fill="#57D5D4"/>
<path d="M13.2336 43.5384H6.9744C5.5704 43.5384 4.4256 42.396 4.4256 40.9896V31.104C4.4256 29.7 5.568 28.5552 6.9744 28.5552H13.2336C14.6376 28.5552 15.7824 29.6976 15.7824 31.104V40.9896C15.7824 42.3936 14.64 43.5384 13.2336 43.5384ZM6.9744 29.0376C5.8344 29.0376 4.9056 29.9664 4.9056 31.1064V40.992C4.9056 42.132 5.832 43.0608 6.9744 43.0608H13.2336C14.3736 43.0608 15.3024 42.132 15.3024 40.992V31.1064C15.3024 29.9664 14.376 29.0376 13.2336 29.0376H6.9744Z" fill="#231F20"/>
<path d="M27.1272 23.9639H20.8704C19.5953 23.9639 18.5616 24.9976 18.5616 26.2727V40.9895C18.5616 42.2646 19.5953 43.2983 20.8704 43.2983H27.1272C28.4023 43.2983 29.436 42.2646 29.436 40.9895V26.2727C29.436 24.9976 28.4023 23.9639 27.1272 23.9639Z" fill="#FFF4DF"/>
<path d="M27.1296 43.5385H20.8704C19.4664 43.5385 18.3216 42.3961 18.3216 40.9897V26.2729C18.3216 24.8689 19.464 23.7241 20.8704 23.7241H27.1296C28.5336 23.7241 29.6784 24.8665 29.6784 26.2729V40.9897C29.6784 42.3937 28.536 43.5385 27.1296 43.5385ZM20.8704 24.2041C19.7304 24.2041 18.8016 25.1329 18.8016 26.2729V40.9897C18.8016 42.1297 19.7304 43.0585 20.8704 43.0585H27.1296C28.2696 43.0585 29.1984 42.1297 29.1984 40.9897V26.2729C29.1984 25.1329 28.272 24.2041 27.1296 24.2041H20.8704Z" fill="#231F20"/>
<path d="M41.0232 28.7974H34.7664C33.4913 28.7974 32.4576 29.831 32.4576 31.1062V40.9894C32.4576 42.2645 33.4913 43.2982 34.7664 43.2982H41.0232C42.2983 43.2982 43.332 42.2645 43.332 40.9894V31.1062C43.332 29.831 42.2983 28.7974 41.0232 28.7974Z" fill="#FFB019"/>
<path d="M41.0256 43.5384H34.7664C33.3624 43.5384 32.2176 42.396 32.2176 40.9896V31.104C32.2176 29.7 33.36 28.5552 34.7664 28.5552H41.0256C42.4296 28.5552 43.5744 29.6976 43.5744 31.104V40.9896C43.5744 42.3936 42.432 43.5384 41.0256 43.5384ZM34.7664 29.0376C33.6264 29.0376 32.6976 29.9664 32.6976 31.1064V40.992C32.6976 42.132 33.624 43.0608 34.7664 43.0608H41.0256C42.1656 43.0608 43.0944 42.132 43.0944 40.992V31.1064C43.0944 29.9664 42.168 29.0376 41.0256 29.0376H34.7664Z" fill="#231F20"/>
</svg>
